<svg width="22" height="22" viewBox="0 0 22 22" fill="none" xmlns="http://www.w3.org/2000/svg">
<path d="M11.1632 16.8781L15.8882 19.8781C16.4976 20.2625 17.2476 19.6906 17.0695 18.9875L15.7007 13.6062C15.6637 13.4571 15.6696 13.3005 15.7177 13.1545C15.7658 13.0085 15.8542 12.8791 15.9726 12.7812L20.2101 9.24684C20.7632 8.78746 20.482 7.85934 19.7601 7.81246L14.2289 7.45621C14.0779 7.44743 13.9328 7.39488 13.8113 7.30497C13.6898 7.21507 13.597 7.09171 13.5445 6.94996L11.482 1.75621C11.4274 1.60612 11.3279 1.47647 11.1971 1.38485C11.0663 1.29323 10.9104 1.24408 10.7507 1.24408C10.591 1.24408 10.4352 1.29323 10.3044 1.38485C10.1735 1.47647 10.0741 1.60612 10.0195 1.75621L7.95698 6.94996C7.90441 7.09171 7.81169 7.21507 7.69016 7.30497C7.56862 7.39488 7.42352 7.44743 7.2726 7.45621L1.74135 7.81246C1.01948 7.85934 0.738228 8.78746 1.29135 9.24684L5.52885 12.7812C5.64729 12.8791 5.73565 13.0085 5.78375 13.1545C5.83185 13.3005 5.83774 13.4571 5.80073 13.6062L4.5351 18.5937C4.31948 19.4375 5.21948 20.1218 5.94135 19.6625L10.3382 16.8781C10.4615 16.7997 10.6046 16.758 10.7507 16.758C10.8968 16.758 11.0399 16.7997 11.1632 16.8781Z" stroke="#C4C4C4" stroke-width="2" stroke-linecap="round" stroke-linejoin="round"/>
</svg>
