<svg width="20" height="20" viewBox="0 0 20 20" fill="none" xmlns="http://www.w3.org/2000/svg">
<path d="M10.1632 15.8781L14.8882 18.8781C15.4976 19.2625 16.2476 18.6906 16.0695 17.9875L14.7007 12.6062C14.6637 12.4571 14.6696 12.3005 14.7177 12.1545C14.7658 12.0085 14.8542 11.8791 14.9726 11.7812L19.2101 8.24684C19.7632 7.78746 19.482 6.85934 18.7601 6.81246L13.2289 6.45621C13.0779 6.44743 12.9328 6.39488 12.8113 6.30497C12.6898 6.21507 12.597 6.09171 12.5445 5.94996L10.482 0.756212C10.4274 0.606121 10.3279 0.476465 10.1971 0.384845C10.0663 0.293225 9.91044 0.24408 9.75073 0.24408C9.59101 0.24408 9.43517 0.293225 9.30435 0.384845C9.17353 0.476465 9.07407 0.606121 9.01948 0.756212L6.95698 5.94996C6.90441 6.09171 6.81169 6.21507 6.69016 6.30497C6.56862 6.39488 6.42352 6.44743 6.2726 6.45621L0.741353 6.81246C0.0194783 6.85934 -0.261772 7.78746 0.291353 8.24684L4.52885 11.7812C4.64729 11.8791 4.73565 12.0085 4.78375 12.1545C4.83185 12.3005 4.83774 12.4571 4.80073 12.6062L3.5351 17.5937C3.31948 18.4375 4.21948 19.1218 4.94135 18.6625L9.33823 15.8781C9.46152 15.7997 9.60461 15.758 9.75073 15.758C9.89684 15.758 10.0399 15.7997 10.1632 15.8781Z" fill="#FFC700"/>
</svg>
