<svg width="32" height="32" viewBox="0 0 32 32" fill="none" xmlns="http://www.w3.org/2000/svg">
<path d="M12 28H20" stroke="white" stroke-width="2" stroke-linecap="round" stroke-linejoin="round"/>
<path d="M7.02502 14C7.02502 12.8214 7.25716 11.6543 7.7082 10.5654C8.15924 9.47654 8.82033 8.48715 9.65374 7.65374C10.4871 6.82034 11.4765 6.15924 12.5654 5.70821C13.6543 5.25717 14.8214 5.02502 16 5.02502C17.1786 5.02502 18.3457 5.25717 19.4346 5.70821C20.5235 6.15924 21.5129 6.82034 22.3463 7.65374C23.1797 8.48715 23.8408 9.47654 24.2918 10.5654C24.7429 11.6543 24.975 12.8214 24.975 14C24.975 18.475 25.9125 21.075 26.7375 22.5C26.8251 22.6518 26.8713 22.8239 26.8715 22.9991C26.8716 23.1744 26.8258 23.3466 26.7384 23.4985C26.651 23.6504 26.5253 23.7767 26.3738 23.8647C26.2223 23.9528 26.0503 23.9994 25.875 24H6.12502C5.94978 23.9994 5.77778 23.9528 5.62625 23.8647C5.47472 23.7767 5.34899 23.6504 5.26163 23.4985C5.17428 23.3466 5.12839 23.1744 5.12854 22.9991C5.1287 22.8239 5.1749 22.6518 5.26252 22.5C6.08752 21.075 7.02502 18.475 7.02502 14Z" stroke="white" stroke-width="2" stroke-linecap="round" stroke-linejoin="round"/>
<path d="M22.925 3C24.9611 4.28526 26.6044 6.10584 27.675 8.2625" stroke="white" stroke-width="2" stroke-linecap="round" stroke-linejoin="round"/>
<path d="M4.32495 8.2625C5.39561 6.10584 7.03889 4.28526 9.07495 3" stroke="white" stroke-width="2" stroke-linecap="round" stroke-linejoin="round"/>
</svg>
